<svg xmlns="http://www.w3.org/2000/svg" viewBox="0 0 680 680" role="img">
  <title>Ocellus sea star icon</title>
  <desc>A coral five-armed sea star with a large golden eye at each arm tip, on a deep teal background.</desc>
  <rect x="40" y="40" width="600" height="600" rx="136" fill="#0E5E66"/>
  <rect x="40" y="40" width="600" height="600" rx="136" fill="none" stroke="#0A4A50" stroke-width="4"/>
  <g id="star" transform="translate(340 340) scale(1.43) translate(-340 -340)">
    <g id="arms" fill="#F4795B">
      <g transform="rotate(0 340 340)"><path d="M272 352 C288 288 304 218 313 168 A 27 27 0 0 1 367 168 C376 218 392 288 408 352 Q340 394 272 352 Z"/></g>
      <g transform="rotate(72 340 340)"><path d="M272 352 C288 288 304 218 313 168 A 27 27 0 0 1 367 168 C376 218 392 288 408 352 Q340 394 272 352 Z"/></g>
      <g transform="rotate(144 340 340)"><path d="M272 352 C288 288 304 218 313 168 A 27 27 0 0 1 367 168 C376 218 392 288 408 352 Q340 394 272 352 Z"/></g>
      <g transform="rotate(216 340 340)"><path d="M272 352 C288 288 304 218 313 168 A 27 27 0 0 1 367 168 C376 218 392 288 408 352 Q340 394 272 352 Z"/></g>
      <g transform="rotate(288 340 340)"><path d="M272 352 C288 288 304 218 313 168 A 27 27 0 0 1 367 168 C376 218 392 288 408 352 Q340 394 272 352 Z"/></g>
    </g>
    <circle cx="340" cy="340" r="96" fill="#F4795B"/>
    <g id="pips" fill="#D95E42">
      <g transform="rotate(0 340 340)"><circle cx="340" cy="225" r="7.5"/><circle cx="340" cy="262" r="9"/><circle cx="340" cy="298" r="10.5"/></g>
      <g transform="rotate(72 340 340)"><circle cx="340" cy="225" r="7.5"/><circle cx="340" cy="262" r="9"/><circle cx="340" cy="298" r="10.5"/></g>
      <g transform="rotate(144 340 340)"><circle cx="340" cy="225" r="7.5"/><circle cx="340" cy="262" r="9"/><circle cx="340" cy="298" r="10.5"/></g>
      <g transform="rotate(216 340 340)"><circle cx="340" cy="225" r="7.5"/><circle cx="340" cy="262" r="9"/><circle cx="340" cy="298" r="10.5"/></g>
      <g transform="rotate(288 340 340)"><circle cx="340" cy="225" r="7.5"/><circle cx="340" cy="262" r="9"/><circle cx="340" cy="298" r="10.5"/></g>
    </g>
    <circle cx="366" cy="314" r="9" fill="#FBD9A8"/>
    <g id="eyes">
      <g transform="rotate(0 340 340)"><circle cx="340" cy="168" r="24" fill="#C94F35"/><circle cx="340" cy="168" r="20" fill="#FFD449"/><circle cx="340" cy="168" r="9" fill="#8A3B00"/></g>
      <g transform="rotate(72 340 340)"><circle cx="340" cy="168" r="24" fill="#C94F35"/><circle cx="340" cy="168" r="20" fill="#FFD449"/><circle cx="340" cy="168" r="9" fill="#8A3B00"/></g>
      <g transform="rotate(144 340 340)"><circle cx="340" cy="168" r="24" fill="#C94F35"/><circle cx="340" cy="168" r="20" fill="#FFD449"/><circle cx="340" cy="168" r="9" fill="#8A3B00"/></g>
      <g transform="rotate(216 340 340)"><circle cx="340" cy="168" r="24" fill="#C94F35"/><circle cx="340" cy="168" r="20" fill="#FFD449"/><circle cx="340" cy="168" r="9" fill="#8A3B00"/></g>
      <g transform="rotate(288 340 340)"><circle cx="340" cy="168" r="24" fill="#C94F35"/><circle cx="340" cy="168" r="20" fill="#FFD449"/><circle cx="340" cy="168" r="9" fill="#8A3B00"/></g>
    </g>
  </g>
</svg>
