<svg xmlns="http://www.w3.org/2000/svg" viewBox="0 0 680 680" role="img">
  <title>Ocellus sea star icon</title>
  <desc>A coral five-armed sea star with a golden eye at each arm tip, on a deep teal rounded square.</desc>
  <rect x="-20" y="-20" width="720" height="720" fill="#0E5E66"/>
  
  <g transform="translate(340 340) scale(1.34) translate(-340 -340)">
    <g id="arms">
      <path transform="rotate(0 340 340)" d="M286 372 C298 282 314 198 326 152 Q340 110 354 152 C366 198 382 282 394 372 Q340 410 286 372 Z" fill="#F4795B"/>
      <path transform="rotate(72 340 340)" d="M286 372 C298 282 314 198 326 152 Q340 110 354 152 C366 198 382 282 394 372 Q340 410 286 372 Z" fill="#F4795B"/>
      <path transform="rotate(144 340 340)" d="M286 372 C298 282 314 198 326 152 Q340 110 354 152 C366 198 382 282 394 372 Q340 410 286 372 Z" fill="#F4795B"/>
      <path transform="rotate(216 340 340)" d="M286 372 C298 282 314 198 326 152 Q340 110 354 152 C366 198 382 282 394 372 Q340 410 286 372 Z" fill="#F4795B"/>
      <path transform="rotate(288 340 340)" d="M286 372 C298 282 314 198 326 152 Q340 110 354 152 C366 198 382 282 394 372 Q340 410 286 372 Z" fill="#F4795B"/>
    </g>
    <circle cx="340" cy="340" r="104" fill="#F4795B"/>
    <g id="pips" fill="#D95E42">
      <g transform="rotate(0 340 340)"><circle cx="340" cy="228" r="8"/><circle cx="340" cy="268" r="9"/><circle cx="340" cy="308" r="10"/></g>
      <g transform="rotate(72 340 340)"><circle cx="340" cy="228" r="8"/><circle cx="340" cy="268" r="9"/><circle cx="340" cy="308" r="10"/></g>
      <g transform="rotate(144 340 340)"><circle cx="340" cy="228" r="8"/><circle cx="340" cy="268" r="9"/><circle cx="340" cy="308" r="10"/></g>
      <g transform="rotate(216 340 340)"><circle cx="340" cy="228" r="8"/><circle cx="340" cy="268" r="9"/><circle cx="340" cy="308" r="10"/></g>
      <g transform="rotate(288 340 340)"><circle cx="340" cy="228" r="8"/><circle cx="340" cy="268" r="9"/><circle cx="340" cy="308" r="10"/></g>
    </g>
    <circle cx="368" cy="316" r="10" fill="#FBD9A8"/>
    <g id="eyes">
      <g transform="rotate(0 340 340)"><circle cx="340" cy="170" r="18" fill="#C94F35"/><circle cx="340" cy="170" r="13.5" fill="#FFD449"/><circle cx="340" cy="170" r="5.5" fill="#8A3B00"/></g>
      <g transform="rotate(72 340 340)"><circle cx="340" cy="170" r="18" fill="#C94F35"/><circle cx="340" cy="170" r="13.5" fill="#FFD449"/><circle cx="340" cy="170" r="5.5" fill="#8A3B00"/></g>
      <g transform="rotate(144 340 340)"><circle cx="340" cy="170" r="18" fill="#C94F35"/><circle cx="340" cy="170" r="13.5" fill="#FFD449"/><circle cx="340" cy="170" r="5.5" fill="#8A3B00"/></g>
      <g transform="rotate(216 340 340)"><circle cx="340" cy="170" r="18" fill="#C94F35"/><circle cx="340" cy="170" r="13.5" fill="#FFD449"/><circle cx="340" cy="170" r="5.5" fill="#8A3B00"/></g>
      <g transform="rotate(288 340 340)"><circle cx="340" cy="170" r="18" fill="#C94F35"/><circle cx="340" cy="170" r="13.5" fill="#FFD449"/><circle cx="340" cy="170" r="5.5" fill="#8A3B00"/></g>
    </g>
  </g>
</svg>
